<svg width="320" height="320" viewBox="0 0 320 320" fill="none" xmlns="http://www.w3.org/2000/svg">
  <defs>
    <linearGradient id="bg2" x1="0%" y1="0%" x2="100%" y2="100%">
      <stop offset="0%" style="stop-color:#FEF3C7;stop-opacity:1" />
      <stop offset="100%" style="stop-color:#FDE68A;stop-opacity:1" />
    </linearGradient>
  </defs>
  
  <!-- Background -->
  <rect width="320" height="320" fill="url(#bg2)" rx="24"/>
  
  <!-- Main interface window -->
  <rect x="40" y="60" width="240" height="200" rx="12" fill="white" stroke="#E5E7EB" stroke-width="2"/>
  
  <!-- Header -->
  <rect x="40" y="60" width="240" height="40" rx="12" fill="#6366F1"/>
  <rect x="40" y="88" width="240" height="12" fill="#6366F1"/>
  
  <!-- Window controls -->
  <circle cx="60" cy="80" r="4" fill="#EF4444"/>
  <circle cx="76" cy="80" r="4" fill="#F59E0B"/>
  <circle cx="92" cy="80" r="4" fill="#0267ff"/>
  
  <!-- Content areas -->
  <rect x="60" y="120" width="80" height="20" rx="4" fill="#E5E7EB"/>
  <rect x="60" y="150" width="120" height="16" rx="4" fill="#F3F4F6"/>
  <rect x="60" y="180" width="100" height="16" rx="4" fill="#F3F4F6"/>
  
  <!-- Sidebar -->
  <rect x="200" y="120" width="60" height="120" rx="8" fill="#F8FAFC" stroke="#E5E7EB"/>
  
  <!-- UI elements -->
  <rect x="210" y="135" width="40" height="8" rx="4" fill="#6366F1"/>
  <rect x="210" y="155" width="30" height="8" rx="4" fill="#E5E7EB"/>
  <rect x="210" y="175" width="35" height="8" rx="4" fill="#E5E7EB"/>
  
  <!-- Floating elements -->
  <circle cx="90" cy="300" r="8" fill="#8B5CF6" opacity="0.6"/>
  <circle cx="230" cy="300" r="6" fill="#06B6D4" opacity="0.6"/>
  <rect x="250" y="40" width="16" height="16" rx="4" fill="#F59E0B" opacity="0.7" transform="rotate(45 258 48)"/>
</svg>